<svg width="28" height="30" viewBox="0 0 28 30" fill="none" xmlns="http://www.w3.org/2000/svg">
<path d="M25.6672 2.75625H21.875V0.91875C21.875 0.410681 21.4839 0 21 0C20.5161 0 20.125 0.410681 20.125 0.91875V2.75625H14.875V0.91875C14.875 0.410681 14.483 0 14 0C13.517 0 13.125 0.410681 13.125 0.91875V2.75625H7.875V0.91875C7.875 0.410681 7.483 0 7 0C6.517 0 6.125 0.410681 6.125 0.91875V2.75625H2.33363C1.04475 2.75625 0 3.85232 0 5.20564V26.9497C0 28.303 1.04475 29.4 2.33363 29.4H25.6672C26.9561 29.4 28 28.303 28 26.9497V5.20564C28 3.85232 26.9561 2.75625 25.6672 2.75625ZM26.25 26.9497C26.25 27.2878 25.9884 27.5625 25.6672 27.5625H2.33363C2.01163 27.5625 1.75 27.2878 1.75 26.9497V5.20564C1.75 4.86846 2.01163 4.59375 2.33363 4.59375H6.125V6.43125C6.125 6.93932 6.517 7.35 7 7.35C7.483 7.35 7.875 6.93932 7.875 6.43125V4.59375H13.125V6.43125C13.125 6.93932 13.517 7.35 14 7.35C14.483 7.35 14.875 6.93932 14.875 6.43125V4.59375H20.125V6.43125C20.125 6.93932 20.5161 7.35 21 7.35C21.4839 7.35 21.875 6.93932 21.875 6.43125V4.59375H25.6672C25.9884 4.59375 26.25 4.86846 26.25 5.20564V26.9497Z" fill="#F9806D"/>
<path d="M9.625 11.0234H6.125V13.7797H9.625V11.0234Z" fill="#F9806D"/>
<path d="M9.625 15.6172H6.125V18.3734H9.625V15.6172Z" fill="#F9806D"/>
<path d="M9.625 20.2109H6.125V22.9672H9.625V20.2109Z" fill="#F9806D"/>
<path d="M15.75 20.2109H12.25V22.9672H15.75V20.2109Z" fill="#F9806D"/>
<path d="M15.75 15.6172H12.25V18.3734H15.75V15.6172Z" fill="#F9806D"/>
<path d="M15.75 11.0234H12.25V13.7797H15.75V11.0234Z" fill="#F9806D"/>
<path d="M21.875 20.2109H18.375V22.9672H21.875V20.2109Z" fill="#F9806D"/>
<path d="M21.875 15.6172H18.375V18.3734H21.875V15.6172Z" fill="#F9806D"/>
<path d="M21.875 11.0234H18.375V13.7797H21.875V11.0234Z" fill="#F9806D"/>
</svg>
