<svg width="128" height="128" viewBox="0 0 128 128" fill="none" xmlns="http://www.w3.org/2000/svg">
<path d="M64 0C51.342 0 38.9683 3.75353 28.4435 10.7859C17.9188 17.8184 9.71575 27.8138 4.87174 39.5083C0.02773 51.2027 -1.23968 64.071 1.22977 76.4858C3.69922 88.9006 9.79463 100.304 18.7452 109.255C27.6958 118.205 39.0995 124.301 51.5143 126.77C63.929 129.24 76.7973 127.972 88.4918 123.128C100.186 118.284 110.182 110.081 117.214 99.5565C124.246 89.0318 128 76.658 128 64C127.981 47.0318 121.233 30.7639 109.234 18.7656C97.2361 6.76732 80.9682 0.0185286 64 0ZM64 122C52.5287 122 41.315 118.598 31.777 112.225C22.2389 105.852 14.8049 96.7938 10.415 86.1956C6.02513 75.5975 4.87654 63.9357 7.11448 52.6848C9.35242 41.4339 14.8764 31.0993 22.9878 22.9878C31.0993 14.8764 41.4339 9.3524 52.6848 7.11445C63.9357 4.87651 75.5976 6.0251 86.1957 10.415C96.7938 14.8049 105.852 22.2389 112.225 31.7769C118.598 41.315 122 52.5287 122 64C121.982 79.3769 115.865 94.1186 104.992 104.992C94.1187 115.865 79.3769 121.981 64 122Z" fill="white"/>
<path d="M58.1167 35.8833C57.548 35.3534 56.7958 35.0649 56.0186 35.0786C55.2414 35.0923 54.4999 35.4072 53.9502 35.9568C53.4006 36.5065 53.0857 37.248 53.072 38.0252C53.0583 38.8024 53.3468 39.5546 53.8767 40.1233L77.7567 64.0033L53.8767 87.8833C53.582 88.1579 53.3456 88.4891 53.1816 88.8571C53.0176 89.2251 52.9294 89.6224 52.9223 90.0252C52.9152 90.428 52.9893 90.8281 53.1402 91.2017C53.2911 91.5752 53.5157 91.9146 53.8006 92.1994C54.0854 92.4843 54.4248 92.7089 54.7983 92.8598C55.1719 93.0107 55.572 93.0848 55.9748 93.0777C56.3776 93.0706 56.7749 92.9824 57.1429 92.8184C57.5109 92.6545 57.8421 92.418 58.1167 92.1233L84.1167 66.1233C84.6785 65.5608 84.9941 64.7983 84.9941 64.0033C84.9941 63.2083 84.6785 62.4458 84.1167 61.8833L58.1167 35.8833Z" fill="white"/>
</svg>
