<svg width="178" height="126" viewBox="0 0 178 126" fill="none" xmlns="http://www.w3.org/2000/svg">
<path d="M34.3119 21.8082C40.0878 27.5841 45.8637 33.3601 51.3645 39.6861C59.6158 49.0375 74.4682 33.9101 65.1167 25.9339C56.3153 18.5077 48.3391 10.2564 39.8127 2.5552C35.6871 -1.57045 29.3611 -0.470281 26.0606 4.20546C19.1845 14.6571 11.2082 23.4585 1.85674 31.7098C-2.819 35.5604 2.13178 44.3618 7.90769 42.1614C18.3593 38.0358 27.1607 30.3346 34.3119 21.8082Z" fill="#EA8674"/>
<path d="M149.272 2.5552C145.146 -1.57045 138.82 -0.470281 135.52 4.20546C128.643 14.6571 120.667 23.4585 111.316 31.7098C106.64 35.5604 111.591 44.3618 117.367 42.1614C127.818 38.0358 136.345 30.3346 143.771 21.8082C149.547 27.5841 155.323 33.3601 160.824 39.6861C169.075 49.0375 183.927 33.9101 174.576 25.9339C165.499 18.5077 157.523 10.2564 149.272 2.5552Z" fill="#EA8674"/>
<path d="M33.266 125.003C43.4426 120.602 52.244 114.551 63.2458 111.526C74.2475 108.5 85.5243 107.125 96.801 107.4C118.805 107.4 138.058 116.201 158.136 123.903C160.336 124.728 162.536 121.702 161.161 120.052C157.586 115.651 154.56 111.251 149.884 107.95C144.659 104.375 138.883 101.899 133.107 99.4237C121.555 94.748 109.178 92.2726 96.801 91.4475C84.149 90.6223 70.947 92.2726 58.8451 95.5731C47.0182 98.8736 32.4409 103.549 23.6395 112.626C17.0385 119.227 25.2898 128.303 33.266 125.003Z" fill="#EA8674"/>
</svg>
