<svg width="51" height="43" viewBox="0 0 51 43" fill="none" xmlns="http://www.w3.org/2000/svg">
<path d="M49.0412 7.81534H15.8139C15.2955 7.81534 14.7984 7.60942 14.4318 7.24287C14.0653 6.87632 13.8594 6.37917 13.8594 5.8608C13.8594 5.34242 14.0653 4.84527 14.4318 4.47872C14.7984 4.11218 15.2955 3.90625 15.8139 3.90625H49.0412C49.5596 3.90625 50.0567 4.11218 50.4233 4.47872C50.7898 4.84527 50.9957 5.34242 50.9957 5.8608C50.9957 6.37917 50.7898 6.87632 50.4233 7.24287C50.0567 7.60942 49.5596 7.81534 49.0412 7.81534Z" fill="#EA8674"/>
<path d="M7.99787 7.81534H2.13423C1.61586 7.81534 1.11871 7.60942 0.75216 7.24287C0.385612 6.87632 0.179688 6.37917 0.179688 5.8608C0.179688 5.34242 0.385612 4.84527 0.75216 4.47872C1.11871 4.11218 1.61586 3.90625 2.13423 3.90625H7.99787C8.51625 3.90625 9.01339 4.11218 9.37994 4.47872C9.74649 4.84527 9.95241 5.34242 9.95241 5.8608C9.95241 6.37917 9.74649 6.87632 9.37994 7.24287C9.01339 7.60942 8.51625 7.81534 7.99787 7.81534Z" fill="#EA8674"/>
<path d="M35.3615 23.456H2.13423C1.61586 23.456 1.11871 23.25 0.75216 22.8835C0.385612 22.5169 0.179688 22.0198 0.179688 21.5014C0.179688 20.983 0.385612 20.4859 0.75216 20.1193C1.11871 19.7528 1.61586 19.5469 2.13423 19.5469H35.3615C35.8799 19.5469 36.377 19.7528 36.7436 20.1193C37.1101 20.4859 37.316 20.983 37.316 21.5014C37.316 22.0198 37.1101 22.5169 36.7436 22.8835C36.377 23.25 35.8799 23.456 35.3615 23.456Z" fill="#EA8674"/>
<path d="M15.8161 39.0888H2.13423C1.61586 39.0888 1.11871 38.8829 0.75216 38.5163C0.385612 38.1498 0.179688 37.6526 0.179688 37.1342C0.179688 36.6159 0.385612 36.1187 0.75216 35.7522C1.11871 35.3856 1.61586 35.1797 2.13423 35.1797H15.8161C16.3344 35.1797 16.8316 35.3856 17.1981 35.7522C17.5647 36.1187 17.7706 36.6159 17.7706 37.1342C17.7706 37.6526 17.5647 38.1498 17.1981 38.5163C16.8316 38.8829 16.3344 39.0888 15.8161 39.0888Z" fill="#EA8674"/>
<path d="M11.9027 11.7273C10.743 11.7273 9.60931 11.3834 8.64504 10.7391C7.68077 10.0948 6.92921 9.17899 6.48541 8.10755C6.0416 7.03611 5.92548 5.85713 6.15173 4.7197C6.37798 3.58227 6.93644 2.53747 7.75648 1.71742C8.57653 0.897377 9.62133 0.33892 10.7588 0.112671C11.8962 -0.113579 13.0752 0.00254063 14.1466 0.446345C15.2181 0.89015 16.1338 1.64171 16.7781 2.60598C17.4224 3.57025 17.7663 4.70392 17.7663 5.86364C17.7663 7.41877 17.1486 8.91021 16.0489 10.0099C14.9493 11.1095 13.4578 11.7273 11.9027 11.7273ZM11.9027 3.90909C11.5161 3.90909 11.1382 4.02373 10.8168 4.23849C10.4954 4.45326 10.2449 4.75852 10.0969 5.11567C9.949 5.47281 9.91029 5.86581 9.98571 6.24495C10.0611 6.62409 10.2473 6.97236 10.5206 7.24571C10.794 7.51906 11.1422 7.70521 11.5214 7.78063C11.9005 7.85604 12.2935 7.81734 12.6507 7.6694C13.0078 7.52147 13.3131 7.27095 13.5278 6.94953C13.7426 6.6281 13.8572 6.25021 13.8572 5.86364C13.8572 5.34526 13.6513 4.84811 13.2848 4.48157C12.9182 4.11502 12.4211 3.90909 11.9027 3.90909Z" fill="#EA8674"/>
<path d="M39.2699 27.3679C38.1102 27.3679 36.9765 27.024 36.0122 26.3797C35.048 25.7354 34.2964 24.8196 33.8526 23.7482C33.4088 22.6767 33.2927 21.4978 33.5189 20.3603C33.7452 19.2229 34.3036 18.1781 35.1237 17.358C35.9437 16.538 36.9885 15.9795 38.1259 15.7533C39.2634 15.527 40.4424 15.6432 41.5138 16.087C42.5852 16.5308 43.501 17.2823 44.1453 18.2466C44.7896 19.2109 45.1335 20.3445 45.1335 21.5043C45.1335 23.0594 44.5157 24.5508 43.4161 25.6505C42.3165 26.7501 40.825 27.3679 39.2699 27.3679ZM39.2699 19.5497C38.8833 19.5497 38.5054 19.6644 38.184 19.8791C37.8626 20.0939 37.6121 20.3991 37.4641 20.7563C37.3162 21.1134 37.2775 21.5064 37.3529 21.8856C37.4283 22.2647 37.6145 22.613 37.8878 22.8863C38.1612 23.1597 38.5094 23.3458 38.8886 23.4213C39.2677 23.4967 39.6607 23.458 40.0179 23.31C40.375 23.1621 40.6803 22.9116 40.895 22.5902C41.1098 22.2687 41.2244 21.8908 41.2244 21.5043C41.2244 20.9859 41.0185 20.4887 40.652 20.1222C40.2854 19.7556 39.7883 19.5497 39.2699 19.5497Z" fill="#EA8674"/>
<path d="M19.723 42.9929C18.5633 42.9929 17.4296 42.649 16.4654 42.0047C15.5011 41.3604 14.7495 40.4446 14.3057 39.3732C13.8619 38.3017 13.7458 37.1228 13.972 35.9853C14.1983 34.8479 14.7568 33.8031 15.5768 32.983C16.3968 32.163 17.4416 31.6045 18.5791 31.3783C19.7165 31.152 20.8955 31.2682 21.9669 31.712C23.0384 32.1558 23.9541 32.9073 24.5984 33.8716C25.2428 34.8359 25.5866 35.9695 25.5866 37.1293C25.5866 38.6844 24.9689 40.1758 23.8692 41.2755C22.7696 42.3751 21.2781 42.9929 19.723 42.9929ZM19.723 35.1747C19.3364 35.1747 18.9585 35.2893 18.6371 35.5041C18.3157 35.7189 18.0652 36.0241 17.9172 36.3813C17.7693 36.7384 17.7306 37.1314 17.806 37.5106C17.8814 37.8897 18.0676 38.238 18.3409 38.5113C18.6143 38.7847 18.9626 38.9708 19.3417 39.0463C19.7208 39.1217 20.1138 39.083 20.471 38.935C20.8281 38.7871 21.1334 38.5366 21.3482 38.2152C21.5629 37.8937 21.6776 37.5158 21.6776 37.1293C21.6776 36.6109 21.4716 36.1137 21.1051 35.7472C20.7385 35.3806 20.2414 35.1747 19.723 35.1747Z" fill="#EA8674"/>
<path d="M49.0447 23.456H43.1811C42.6627 23.456 42.1656 23.25 41.799 22.8835C41.4325 22.5169 41.2266 22.0198 41.2266 21.5014C41.2266 20.983 41.4325 20.4859 41.799 20.1193C42.1656 19.7528 42.6627 19.5469 43.1811 19.5469H49.0447C49.5631 19.5469 50.0603 19.7528 50.4268 20.1193C50.7934 20.4859 50.9993 20.983 50.9993 21.5014C50.9993 22.0198 50.7934 22.5169 50.4268 22.8835C50.0603 23.25 49.5631 23.456 49.0447 23.456Z" fill="#EA8674"/>
<path d="M49.0433 39.0888H23.6342C23.1159 39.0888 22.6187 38.8829 22.2522 38.5163C21.8856 38.1498 21.6797 37.6526 21.6797 37.1342C21.6797 36.6159 21.8856 36.1187 22.2522 35.7522C22.6187 35.3856 23.1159 35.1797 23.6342 35.1797H49.0433C49.5617 35.1797 50.0588 35.3856 50.4254 35.7522C50.7919 36.1187 50.9979 36.6159 50.9979 37.1342C50.9979 37.6526 50.7919 38.1498 50.4254 38.5163C50.0588 38.8829 49.5617 39.0888 49.0433 39.0888Z" fill="#EA8674"/>
</svg>
