<svg width="51" height="56" viewBox="0 0 51 56" fill="none" xmlns="http://www.w3.org/2000/svg">
<path fill-rule="evenodd" clip-rule="evenodd" d="M30.4648 50.8405C30.466 50.8647 30.4724 50.8863 30.4724 50.9118C30.4724 53.7213 28.2048 56 25.4074 56C22.6101 56 20.3424 53.7213 20.3424 50.9118C20.3424 50.8876 20.3488 50.8659 20.3488 50.8405C4.1503 50.3949 0 47.7509 0 44.5467C0 43.5435 0.437008 42.599 1.50031 41.7537C9.1581 33.2054 11.4333 35.5719 11.4333 22.9092C11.4333 14.4666 11.7776 6.72662 21.924 5.33267C21.7233 4.86674 21.609 4.35499 21.609 3.8165C21.609 1.70839 23.31 0 25.4074 0C27.5048 0 29.2058 1.70839 29.2058 3.8165C29.2058 4.35499 29.0915 4.86674 28.8908 5.33267C39.0372 6.72662 39.3815 14.4666 39.3815 22.9092C39.3815 35.6101 41.6681 33.1863 49.3818 41.8262C50.3905 42.6537 50.8148 43.5715 50.8148 44.5467C50.8148 47.7483 46.5553 50.3924 30.4648 50.8405ZM25.4074 53.4578C26.8074 53.4578 27.9405 52.3184 27.9405 50.9143C27.9405 50.9067 27.938 50.899 27.938 50.8914C27.111 50.9028 26.2916 50.9156 25.4074 50.9156C24.5232 50.9156 23.7051 50.9028 22.8768 50.8914C22.8768 50.899 22.8743 50.9067 22.8743 50.9143C22.8743 52.3184 24.0075 53.4578 25.4074 53.4578ZM25.4074 2.54221C24.7074 2.54221 24.1421 3.11125 24.1421 3.81396C24.1421 4.51666 24.7074 5.08697 25.4074 5.08697C26.1074 5.08697 26.674 4.51666 26.674 3.81396C26.674 3.11125 26.1074 2.54221 25.4074 2.54221ZM47.7723 43.7969C47.7723 43.7969 45.8388 41.6149 42.6679 38.7252C38.3385 34.7724 36.8407 32.8986 36.8407 22.9092C36.8407 13.1528 36.3097 7.63301 25.4074 7.63301C14.5051 7.63301 13.9741 13.1528 13.9741 22.9092C13.9741 32.8998 12.475 34.775 8.14307 38.729C5.03448 41.5665 3.07938 43.7472 3.07938 43.7472C2.54074 44.1762 2.54074 44.4257 2.54074 44.5467C2.54074 44.7033 2.80117 48.3695 25.4074 48.3695C48.0136 48.3695 48.2741 44.7033 48.2741 44.5467C48.2741 44.4448 48.2741 44.2068 47.7723 43.7969Z" fill="#A2CE42"/>
</svg>
