<svg width="56" height="56" viewBox="0 0 56 56" fill="none" xmlns="http://www.w3.org/2000/svg">
<path d="M28 0C27.3812 0 26.7877 0.245833 26.3501 0.683417C25.9125 1.121 25.6667 1.71449 25.6667 2.33333C25.6667 2.95217 25.9125 3.54566 26.3501 3.98325C26.7877 4.42083 27.3812 4.66667 28 4.66667C32.6149 4.66667 37.1262 6.03514 40.9633 8.59904C44.8004 11.1629 47.7911 14.8071 49.5572 19.0707C51.3232 23.3343 51.7853 28.0259 50.885 32.5521C49.9847 37.0783 47.7624 41.2359 44.4991 44.4991C41.2359 47.7624 37.0783 49.9847 32.5521 50.885C28.0259 51.7853 23.3343 51.3232 19.0707 49.5572C14.8071 47.7911 11.1629 44.8004 8.59904 40.9633C6.03514 37.1262 4.66667 32.6149 4.66667 28C4.66667 27.3812 4.42083 26.7877 3.98325 26.3501C3.54566 25.9125 2.95217 25.6667 2.33333 25.6667C1.71449 25.6667 1.121 25.9125 0.683417 26.3501C0.245833 26.7877 0 27.3812 0 28C0 33.5379 1.64217 38.9514 4.71885 43.556C7.79553 48.1605 12.1685 51.7494 17.2849 53.8686C22.4012 55.9879 28.0311 56.5424 33.4625 55.462C38.894 54.3816 43.8831 51.7149 47.799 47.799C51.7149 43.8831 54.3816 38.894 55.462 33.4625C56.5424 28.0311 55.9879 22.4012 53.8686 17.2849C51.7494 12.1685 48.1605 7.79553 43.556 4.71885C38.9514 1.64217 33.5379 0 28 0Z" fill="#A2CE42"/>
<path d="M23.2311 40.3686C25.0545 41.1062 27.0186 41.4312 28.9825 41.3203C30.9464 41.2095 32.8614 40.6656 34.5903 39.7275C36.3192 38.7895 37.8192 37.4806 38.9828 35.8946C40.1463 34.3087 40.9446 32.4849 41.3203 30.5542C41.6961 28.6234 41.6401 26.6334 41.1563 24.7268C40.6725 22.8203 39.7729 21.0443 38.5219 19.5263C37.271 18.0084 35.6997 16.7859 33.9208 15.9466C32.1418 15.1074 30.1992 14.672 28.2322 14.6719C27.6134 14.6719 27.0199 14.9177 26.5823 15.3553C26.1447 15.7929 25.8989 16.3864 25.8989 17.0052C25.8989 17.624 26.1447 18.2175 26.5823 18.6551C27.0199 19.0927 27.6134 19.3385 28.2322 19.3385C29.5102 19.3394 30.7722 19.6228 31.9277 20.1686C33.0833 20.7144 34.1039 21.5089 34.9164 22.4953C35.7289 23.4818 36.3132 24.6357 36.6274 25.8744C36.9417 27.1132 36.9781 28.4061 36.7341 29.6605C36.49 30.915 35.9716 32.0999 35.216 33.1305C34.4603 34.1612 33.486 35.0119 32.363 35.6218C31.24 36.2318 29.996 36.5858 28.7201 36.6586C27.4442 36.7314 26.168 36.5211 24.9829 36.0428C24.4092 35.8105 23.7668 35.8156 23.1969 36.057C22.627 36.2983 22.1764 36.7562 21.9441 37.3298C21.7118 37.9035 21.7168 38.5459 21.9582 39.1158C22.1996 39.6857 22.6574 40.1363 23.2311 40.3686Z" fill="#A2CE42"/>
<path d="M28.0029 48.6687C33.4839 48.6687 38.7405 46.4914 42.6162 42.6157C46.4919 38.74 48.6693 33.4834 48.6693 28.0023C48.6693 22.5213 46.4919 17.2647 42.6162 13.389C38.7405 9.51328 33.4839 7.33594 28.0029 7.33594C27.384 7.33594 26.7905 7.58177 26.353 8.01935C25.9154 8.45694 25.6695 9.05043 25.6695 9.66927C25.6695 10.2881 25.9154 10.8816 26.353 11.3192C26.7905 11.7568 27.384 12.0026 28.0029 12.0026C30.8114 12.0032 33.5702 12.743 36.0021 14.1478C38.4341 15.5525 40.4534 17.5726 41.8572 20.0051C43.261 22.4376 43.9998 25.1967 43.9993 28.0052C43.9988 30.8137 43.259 33.5725 41.8544 36.0045C40.4497 38.4365 38.4296 40.4559 35.9972 41.8598C33.5648 43.2636 30.8057 44.0025 27.9972 44.0021C25.1887 44.0017 22.4298 43.262 19.9978 41.8574C17.5657 40.4529 15.5463 38.4329 14.1423 36.0005C13.8324 35.4648 13.3224 35.0742 12.7245 34.9145C12.1265 34.7549 11.4897 34.8393 10.954 35.1492C10.4183 35.4591 10.0277 35.9691 9.86804 36.5671C9.7084 37.165 9.79282 37.8018 10.1027 38.3375C11.923 41.474 14.5337 44.0785 17.6745 45.8913C20.8153 47.704 24.3765 48.6617 28.0029 48.6687Z" fill="#A2CE42"/>
</svg>
