<svg width="58" height="58" viewBox="0 0 58 58" fill="none" xmlns="http://www.w3.org/2000/svg">
<path d="M31.4167 58H26.5833C24.5848 58 22.9583 56.3736 22.9583 54.375V49.8752C21.4117 49.4281 19.923 48.8106 18.5105 48.03L15.3277 51.214C13.9575 52.5843 11.571 52.5818 10.2008 51.214L6.78238 47.7968C6.09725 47.1129 5.72025 46.2018 5.72025 45.234C5.72025 44.2661 6.09725 43.355 6.78238 42.6711L9.96633 39.4859C9.18696 38.077 8.5695 36.5883 8.12363 35.0405H3.625C1.62642 35.0405 0 33.414 0 31.4155V26.5821C0 25.613 0.377 24.7032 1.06092 24.0193C1.74604 23.3353 2.65592 22.9571 3.625 22.9571H8.12483C8.57192 21.4129 9.18817 19.923 9.96875 18.5117L6.786 15.3277C5.37225 13.914 5.37225 11.6157 6.786 10.202L10.2032 6.78358C11.5722 5.41575 13.9599 5.41333 15.3301 6.78358L18.5141 9.96754C19.9254 9.18817 21.4141 8.57071 22.9583 8.12483V3.625C22.9583 1.62642 24.5848 0 26.5833 0H31.4167C33.4153 0 35.0417 1.62642 35.0417 3.625V8.12483C36.5883 8.57192 38.077 9.18937 39.4859 9.96754L42.6699 6.78358C44.0401 5.41575 46.4266 5.41333 47.7968 6.78358L51.2152 10.2008C51.9003 10.8847 52.2773 11.7957 52.2773 12.7636C52.2773 13.7315 51.9003 14.6426 51.2152 15.3265L48.0325 18.5105C48.813 19.9218 49.4305 21.4105 49.8764 22.9571H54.375C56.3736 22.9571 58 24.5835 58 26.5821V31.4155C58 32.3845 57.623 33.2944 56.9391 33.9783C56.2552 34.6623 55.3441 35.0405 54.375 35.0405H49.8752C49.4281 36.5871 48.8106 38.077 48.0312 39.4871L51.214 42.6711C52.6278 44.0848 52.6278 46.3831 51.214 47.7968L47.7968 51.2152C46.4266 52.5843 44.0401 52.5843 42.6699 51.2152L39.4883 48.0312C38.077 48.8118 36.5871 49.4281 35.0429 49.8752V54.375C35.0417 56.3736 33.4165 58 31.4167 58ZM18.3147 45.3101C18.531 45.3101 18.7497 45.3681 18.9443 45.4865C20.6553 46.5329 22.5076 47.3014 24.4506 47.7715C24.9932 47.9032 25.375 48.3877 25.375 48.946V54.375C25.375 55.042 25.9175 55.5833 26.5833 55.5833H31.4167C32.0825 55.5833 32.625 55.042 32.625 54.375V48.946C32.625 48.3877 33.0068 47.9032 33.5494 47.7715C35.49 47.3014 37.3423 46.5353 39.0545 45.4877C39.533 45.1965 40.1445 45.2702 40.5396 45.6641L44.3797 49.5054C44.8328 49.9573 45.6351 49.9598 46.0895 49.5054L49.5066 46.087C49.9779 45.6158 49.9779 44.8497 49.5066 44.3785L45.6653 40.5372C45.2702 40.1433 45.1977 39.5282 45.4889 39.0521C46.5341 37.3435 47.3014 35.4912 47.7715 33.547C47.902 33.0044 48.3877 32.6214 48.946 32.6214H54.375C54.6976 32.6214 55.0021 32.4957 55.2305 32.2673C55.4577 32.0426 55.5833 31.7393 55.5833 31.4155V26.5821C55.5833 25.9151 55.0408 25.3738 54.375 25.3738H48.946C48.3877 25.3738 47.902 24.992 47.7715 24.4482C47.3026 22.5064 46.5353 20.654 45.4889 18.943C45.1977 18.467 45.2702 17.8543 45.6653 17.458L49.5066 13.6167C49.7314 13.3908 49.8607 13.0802 49.8607 12.7624C49.8607 12.4446 49.7314 12.1329 49.5066 11.9081L46.0882 8.49096C45.6315 8.03542 44.8352 8.03542 44.3785 8.49096L40.5372 12.3323C40.1433 12.7286 39.5306 12.8023 39.0521 12.5087C37.3448 11.4647 35.4936 10.6962 33.5494 10.2261C33.008 10.0968 32.625 9.61229 32.625 9.05404V3.625C32.625 2.958 32.0825 2.41667 31.4167 2.41667H26.5833C25.9175 2.41667 25.375 2.958 25.375 3.625V9.05404C25.375 9.61229 24.9932 10.0968 24.4506 10.2285C22.51 10.6974 20.6577 11.4647 18.9455 12.5111C18.4682 12.8023 17.8555 12.7298 17.4616 12.3347L13.6203 8.49337C13.1636 8.03783 12.3673 8.03783 11.9105 8.49337L8.49458 11.9105C8.02333 12.3818 8.02333 13.1479 8.49458 13.6191L12.3359 17.4604C12.731 17.8543 12.8035 18.4694 12.5123 18.9455C11.4659 20.6565 10.6986 22.5088 10.2297 24.4494C10.0992 24.992 9.6135 25.375 9.05525 25.375H3.625C3.30238 25.375 2.99788 25.5007 2.7695 25.729C2.54233 25.955 2.41667 26.2583 2.41667 26.5821V31.4155C2.41667 32.0825 2.95921 32.6238 3.625 32.6238H9.05404C9.61229 32.6238 10.098 33.0056 10.2285 33.5494C10.6986 35.4924 11.4659 37.3447 12.5111 39.0533C12.8023 39.5294 12.7298 40.142 12.3347 40.5384L8.49337 44.3809C8.26863 44.6068 8.13933 44.9174 8.13933 45.2352C8.13933 45.553 8.26863 45.8647 8.49337 46.0895L11.9117 49.5066C12.3673 49.9622 13.1648 49.9622 13.6215 49.5066L17.4616 45.6653C17.6936 45.4309 18.0018 45.3101 18.3147 45.3101Z" fill="#A2CE42"/>
<path d="M29.0052 41.0885C22.3425 41.0885 16.9219 35.668 16.9219 29.0052C16.9219 22.3425 22.3425 16.9219 29.0052 16.9219C35.668 16.9219 41.0885 22.3425 41.0885 29.0052C41.0885 35.668 35.6692 41.0885 29.0052 41.0885ZM29.0052 19.3385C23.6753 19.3385 19.3385 23.6753 19.3385 29.0052C19.3385 34.3352 23.6753 38.6719 29.0052 38.6719C34.3352 38.6719 38.6719 34.3352 38.6719 29.0052C38.6719 23.6753 34.3364 19.3385 29.0052 19.3385Z" fill="#A2CE42"/>
</svg>
