<svg width="63" height="63" viewBox="0 0 63 63" fill="none" xmlns="http://www.w3.org/2000/svg">
<path d="M35.5162 10.3528V7.5918H38.0889C38.5909 7.5918 39.0301 7.15256 39.0301 6.65057V2.13264C39.0301 1.63065 38.5909 1.19141 38.0889 1.19141H27.1078C26.6058 1.19141 26.1666 1.63065 26.1666 2.13264V6.65057C26.1666 7.15256 26.6058 7.5918 27.1078 7.5918H29.6805V10.3528C23.5939 11.043 18.1975 13.8667 14.1188 18.0081L13.052 16.9414L14.809 15.1844C15.1855 14.8079 15.1855 14.2432 14.809 13.8667L11.1696 10.2273C10.7931 9.85077 10.2283 9.85077 9.85185 10.2273L4.89468 15.0589C4.51818 15.4354 4.51818 16.0002 4.89468 16.3767L8.53412 20.0161C8.72236 20.2044 8.97336 20.2671 9.22436 20.2671C9.47535 20.2671 9.72635 20.2044 9.9146 20.0161L11.7343 18.1964L12.9265 19.3886C9.16161 23.8438 6.90264 29.6167 6.90264 35.8916C6.90264 50.0729 18.4485 61.6187 32.6297 61.6187C46.811 61.6187 58.3568 50.0729 58.3568 35.8916C58.2941 22.7143 48.317 11.796 35.5162 10.3528ZM9.22436 18.0709L6.90264 15.6864L10.4166 12.1725L12.7383 14.4942L11.3578 15.8747C11.1696 16.0629 10.9186 16.3139 10.6676 16.5649L9.22436 18.0709ZM30.6218 5.70933H28.0491V3.07388H37.1477V5.70933H34.575C34.073 5.70933 33.6337 6.14858 33.6337 6.65057V10.2273C33.32 10.2273 32.9435 10.2273 32.6297 10.2273C32.316 10.2273 31.9395 10.2273 31.6258 10.2273V6.65057C31.563 6.08583 31.1238 5.70933 30.6218 5.70933ZM32.567 59.7362C19.4524 59.7362 8.72236 49.0689 8.72236 35.8916C8.72236 22.7143 19.3897 12.047 32.567 12.047C33.069 12.047 33.571 12.047 34.073 12.1097C34.324 12.1097 34.575 12.1725 34.826 12.1725C46.9365 13.302 56.4116 23.5301 56.4116 35.8916C56.4116 49.0689 45.7443 59.7362 32.567 59.7362Z" fill="#989898"/>
<path d="M46.1203 20.4557C46.0576 20.393 45.9948 20.3302 45.9321 20.2675C42.3554 17.1928 37.7119 15.373 32.6293 15.373C21.2717 15.373 12.1104 24.5972 12.1104 35.892C12.1104 47.1868 21.2717 56.4736 32.5665 56.4736C43.8613 56.4736 53.0854 47.2495 53.0854 35.9547C53.1482 29.7426 50.3872 24.2207 46.1203 20.4557ZM32.5665 54.5912C22.2757 54.5912 13.9301 46.2456 13.9301 35.9547C13.9301 25.6639 22.2757 17.3183 32.5665 17.3183C36.8962 17.3183 40.8494 18.8242 43.9868 21.2715L33.8215 32.9428C33.445 32.8173 33.0058 32.6918 32.6293 32.6918C30.8723 32.6918 29.4291 34.135 29.4291 35.892C29.4291 37.6489 30.8723 39.0922 32.6293 39.0922C34.3862 39.0922 35.7667 37.6489 35.7667 35.892C35.7667 35.2645 35.5785 34.637 35.2647 34.135L45.4928 22.4009C49.0695 25.7894 51.2657 30.5583 51.2657 35.892C51.2657 46.1828 42.8574 54.5912 32.5665 54.5912ZM33.8843 35.892C33.8843 36.645 33.3195 37.2097 32.5665 37.2097C31.8135 37.2097 31.2488 36.645 31.2488 35.892C31.2488 35.2017 31.8135 34.5742 32.5665 34.5742C33.3195 34.5742 33.8843 35.2017 33.8843 35.892Z" fill="#989898"/>
</svg>
