<svg width="184" height="130" viewBox="0 0 184 130" fill="none" xmlns="http://www.w3.org/2000/svg">
<path d="M35.4828 22.5525C41.4558 28.5255 47.4289 34.4985 53.1175 41.0404C61.6504 50.711 77.0096 35.0674 67.339 26.8189C58.2372 19.1393 49.9887 10.6064 41.1714 2.6424C36.905 -1.62404 30.3631 -0.48633 26.9499 4.34898C19.8392 15.1573 11.5907 24.2591 1.9201 32.792C-2.91521 36.774 2.20453 45.8757 8.17756 43.6003C18.9859 39.3338 28.0876 31.3698 35.4828 22.5525Z" fill="#A0BF3E"/>
<path d="M154.366 2.6424C150.099 -1.62404 143.557 -0.48633 140.144 4.34898C133.034 15.1573 124.785 24.2591 115.114 32.792C110.279 36.774 115.399 45.8757 121.372 43.6003C132.18 39.3338 140.998 31.3698 148.677 22.5525C154.65 28.5255 160.623 34.4985 166.312 41.0404C174.845 50.711 190.204 35.0674 180.533 26.8189C171.147 19.1393 162.899 10.6064 154.366 2.6424Z" fill="#A0BF3E"/>
<path d="M154.655 95.0758C144.131 99.6267 135.03 105.884 123.652 109.013C112.275 112.142 100.614 113.564 88.952 113.279C66.1976 113.279 46.2875 104.178 25.5241 96.2135C23.2487 95.3603 20.9732 98.489 22.3954 100.196C26.093 104.746 29.2217 109.297 34.057 112.71C39.4612 116.408 45.4342 118.968 51.4072 121.528C63.3533 126.363 76.1526 128.923 88.952 129.776C102.036 130.63 115.688 128.923 128.203 125.51C140.434 122.097 155.509 117.261 164.61 107.875C171.437 101.049 162.904 91.6627 154.655 95.0758Z" fill="#A0BF3E"/>
</svg>
