<svg width="96" height="96" viewBox="0 0 96 96" fill="none" xmlns="http://www.w3.org/2000/svg">
<path d="M48 0C21.4929 0 0 21.4929 0 48C0 74.5071 21.4929 96 48 96C74.5071 96 96 74.5071 96 48C96 21.4929 74.5071 0 48 0ZM71.2071 64.1786C71.5286 64.5 71.7 64.9286 71.7 65.3786C71.7 65.8286 71.5286 66.2786 71.2071 66.5786L66.5786 71.2286C66.2357 71.5714 65.8071 71.7214 65.3786 71.7214C64.95 71.7214 64.5 71.55 64.1786 71.2286L48 55.0286L31.8429 71.25C31.5214 71.5929 31.0714 71.7429 30.6429 71.7429C30.2143 71.7429 29.7643 71.5714 29.4429 71.25L24.8143 66.6C24.4929 66.2786 24.3214 65.85 24.3214 65.4C24.3214 64.95 24.4929 64.5 24.8143 64.2L41.0357 47.9143L24.7714 31.8429C24.1071 31.1786 24.1071 30.0857 24.7714 29.4214L29.4 24.7714C29.7214 24.45 30.15 24.2786 30.6 24.2786C31.05 24.2786 31.4786 24.45 31.8 24.7714L48.0214 40.7786L64.2429 24.7714C64.5643 24.45 64.9929 24.2786 65.4429 24.2786C65.8929 24.2786 66.3214 24.45 66.6429 24.7714L71.2714 29.4214C71.9357 30.0857 71.9357 31.1786 71.2714 31.8429L55.0071 47.9143L71.2071 64.1786Z" fill="#A0BF3E"/>
</svg>
